<?xml version="1.0" encoding="UTF-8"?>
<svg xmlns="http://www.w3.org/2000/svg" xmlns:xlink="http://www.w3.org/1999/xlink" width="375pt" height="374.999991pt" viewBox="0 0 375 374.999991" version="1.2">
<defs>
<clipPath id="clip1">
  <path d="M 64 27.050781 L 311.117188 27.050781 L 311.117188 357.050781 L 64 357.050781 Z M 64 27.050781 "/>
</clipPath>
<clipPath id="clip2">
  <path d="M 63.617188 27.050781 L 188 27.050781 L 188 357.050781 L 63.617188 357.050781 Z M 63.617188 27.050781 "/>
</clipPath>
<filter id="alpha" filterUnits="objectBoundingBox" x="0%" y="0%" width="100%" height="100%">
  <feColorMatrix type="matrix" in="SourceGraphic" values="0 0 0 0 1 0 0 0 0 1 0 0 0 0 1 0 0 0 1 0"/>
</filter>
<mask id="mask0">
  <g filter="url(#alpha)">
<rect x="0" y="0" width="375" height="374.999991" style="fill:rgb(0%,0%,0%);fill-opacity:0.149;stroke:none;"/>
  </g>
</mask>
<clipPath id="clip4">
  <path d="M 1 0.0507812 L 124.679688 0.0507812 L 124.679688 330.050781 L 1 330.050781 Z M 1 0.0507812 "/>
</clipPath>
<clipPath id="clip3">
  <rect x="0" y="0" width="125" height="331"/>
</clipPath>
<g id="surface5" clip-path="url(#clip3)">
<g clip-path="url(#clip4)" clip-rule="nonzero">
<path style=" stroke:none;fill-rule:nonzero;fill:rgb(100%,100%,100%);fill-opacity:1;" d="M 124.640625 0.0507812 C 56.390625 0.0507812 1.066406 55.378906 1.066406 123.628906 C 1.066406 213.03125 84.578125 240.648438 124.640625 330.050781 Z M 124.640625 0.0507812 "/>
</g>
</g>
<clipPath id="clip5">
  <path d="M 81.578125 46.273438 L 293.078125 46.273438 L 293.078125 329.023438 L 81.578125 329.023438 Z M 81.578125 46.273438 "/>
</clipPath>
<clipPath id="clip6">
  <path d="M 81.578125 46.273438 L 188 46.273438 L 188 329.023438 L 81.578125 329.023438 Z M 81.578125 46.273438 "/>
</clipPath>
<mask id="mask1">
  <g filter="url(#alpha)">
<rect x="0" y="0" width="375" height="374.999991" style="fill:rgb(0%,0%,0%);fill-opacity:0.149;stroke:none;"/>
  </g>
</mask>
<clipPath id="clip8">
  <path d="M 0.578125 0.273438 L 106.679688 0.273438 L 106.679688 283.023438 L 0.578125 283.023438 Z M 0.578125 0.273438 "/>
</clipPath>
<clipPath id="clip7">
  <rect x="0" y="0" width="107" height="284"/>
</clipPath>
<g id="surface8" clip-path="url(#clip7)">
<g clip-path="url(#clip8)" clip-rule="nonzero">
<path style=" stroke:none;fill-rule:nonzero;fill:rgb(87.838745%,92.549133%,89.408875%);fill-opacity:1;" d="M 106.5625 0.273438 C 48.242188 0.273438 0.96875 47.679688 0.96875 106.15625 C 0.96875 182.757812 72.328125 206.421875 106.5625 283.023438 Z M 106.5625 0.273438 "/>
</g>
</g>
</defs>
<g id="surface1">
<g clip-path="url(#clip1)" clip-rule="nonzero">
<path style=" stroke:none;fill-rule:nonzero;fill:rgb(100%,29.40979%,36.079407%);fill-opacity:1;" d="M 187.640625 27.050781 C 119.390625 27.050781 64.066406 82.378906 64.066406 150.628906 C 64.066406 240.03125 147.574219 267.648438 187.640625 357.050781 C 227.703125 267.648438 311.21875 240.03125 311.21875 150.628906 C 311.21875 82.378906 255.894531 27.050781 187.640625 27.050781 Z M 187.640625 27.050781 "/>
</g>
<g clip-path="url(#clip2)" clip-rule="nonzero">
<use xlink:href="#surface5" transform="matrix(1,0,0,1,63,27)" mask="url(#mask0)"/>
</g>
<path style=" stroke:none;fill-rule:nonzero;fill:rgb(100%,29.40979%,36.079407%);fill-opacity:1;" d="M 293.800781 150.625 C 293.800781 152.359375 293.757812 154.097656 293.671875 155.832031 C 293.585938 157.566406 293.457031 159.300781 293.289062 161.027344 C 293.117188 162.757812 292.90625 164.480469 292.652344 166.199219 C 292.394531 167.917969 292.097656 169.628906 291.757812 171.335938 C 291.421875 173.039062 291.039062 174.734375 290.617188 176.417969 C 290.195312 178.101562 289.734375 179.777344 289.226562 181.441406 C 288.722656 183.101562 288.179688 184.75 287.59375 186.386719 C 287.007812 188.023438 286.382812 189.644531 285.71875 191.25 C 285.054688 192.855469 284.351562 194.441406 283.605469 196.011719 C 282.863281 197.582031 282.082031 199.132812 281.265625 200.667969 C 280.445312 202.199219 279.589844 203.710938 278.695312 205.199219 C 277.800781 206.691406 276.875 208.160156 275.90625 209.601562 C 274.941406 211.046875 273.941406 212.46875 272.90625 213.863281 C 271.871094 215.257812 270.804688 216.628906 269.703125 217.972656 C 268.597656 219.3125 267.464844 220.628906 266.296875 221.917969 C 265.132812 223.203125 263.933594 224.460938 262.703125 225.691406 C 261.476562 226.917969 260.21875 228.117188 258.929688 229.28125 C 257.644531 230.449219 256.328125 231.585938 254.984375 232.6875 C 253.640625 233.789062 252.273438 234.855469 250.878906 235.890625 C 249.480469 236.925781 248.0625 237.925781 246.617188 238.894531 C 245.171875 239.859375 243.707031 240.789062 242.214844 241.679688 C 240.726562 242.574219 239.214844 243.429688 237.679688 244.25 C 236.148438 245.066406 234.597656 245.847656 233.027344 246.589844 C 231.457031 247.335938 229.867188 248.039062 228.261719 248.703125 C 226.65625 249.367188 225.039062 249.992188 223.402344 250.578125 C 221.765625 251.164062 220.117188 251.707031 218.453125 252.210938 C 216.792969 252.71875 215.117188 253.179688 213.433594 253.601562 C 211.746094 254.023438 210.050781 254.40625 208.347656 254.746094 C 206.644531 255.082031 204.933594 255.378906 203.214844 255.636719 C 201.496094 255.890625 199.769531 256.101562 198.042969 256.273438 C 196.3125 256.441406 194.582031 256.570312 192.84375 256.65625 C 191.109375 256.742188 189.375 256.785156 187.636719 256.785156 C 185.898438 256.785156 184.164062 256.742188 182.425781 256.65625 C 180.691406 256.570312 178.960938 256.441406 177.230469 256.273438 C 175.5 256.101562 173.777344 255.890625 172.058594 255.636719 C 170.339844 255.378906 168.628906 255.082031 166.925781 254.746094 C 165.21875 254.40625 163.527344 254.023438 161.839844 253.601562 C 160.15625 253.179688 158.480469 252.71875 156.820312 252.210938 C 155.15625 251.707031 153.507812 251.164062 151.871094 250.578125 C 150.234375 249.992188 148.613281 249.367188 147.007812 248.703125 C 145.402344 248.039062 143.816406 247.335938 142.246094 246.589844 C 140.675781 245.847656 139.125 245.066406 137.589844 244.25 C 136.058594 243.429688 134.546875 242.574219 133.058594 241.679688 C 131.566406 240.789062 130.097656 239.859375 128.65625 238.894531 C 127.210938 237.925781 125.789062 236.925781 124.394531 235.890625 C 123 234.855469 121.628906 233.789062 120.285156 232.6875 C 118.945312 231.585938 117.628906 230.449219 116.339844 229.28125 C 115.054688 228.117188 113.796875 226.917969 112.566406 225.691406 C 111.339844 224.460938 110.140625 223.203125 108.972656 221.917969 C 107.808594 220.628906 106.671875 219.3125 105.570312 217.972656 C 104.46875 216.628906 103.398438 215.257812 102.363281 213.863281 C 101.328125 212.46875 100.328125 211.046875 99.363281 209.601562 C 98.398438 208.160156 97.46875 206.691406 96.578125 205.199219 C 95.683594 203.710938 94.828125 202.199219 94.007812 200.667969 C 93.1875 199.132812 92.410156 197.582031 91.664062 196.011719 C 90.921875 194.441406 90.21875 192.855469 89.554688 191.25 C 88.890625 189.644531 88.265625 188.023438 87.679688 186.386719 C 87.09375 184.75 86.546875 183.101562 86.042969 181.441406 C 85.539062 179.777344 85.078125 178.101562 84.652344 176.417969 C 84.230469 174.734375 83.851562 173.039062 83.511719 171.335938 C 83.171875 169.628906 82.875 167.917969 82.621094 166.199219 C 82.367188 164.480469 82.152344 162.757812 81.984375 161.027344 C 81.8125 159.300781 81.6875 157.566406 81.601562 155.832031 C 81.515625 154.097656 81.472656 152.359375 81.472656 150.625 C 81.472656 148.886719 81.515625 147.148438 81.601562 145.414062 C 81.6875 143.679688 81.8125 141.945312 81.984375 140.21875 C 82.152344 138.488281 82.367188 136.765625 82.621094 135.046875 C 82.875 133.328125 83.171875 131.617188 83.511719 129.910156 C 83.851562 128.207031 84.230469 126.511719 84.652344 124.828125 C 85.078125 123.144531 85.539062 121.46875 86.042969 119.804688 C 86.546875 118.144531 87.09375 116.496094 87.679688 114.859375 C 88.265625 113.222656 88.890625 111.601562 89.554688 109.996094 C 90.21875 108.390625 90.921875 106.804688 91.664062 105.234375 C 92.410156 103.664062 93.1875 102.113281 94.007812 100.578125 C 94.828125 99.046875 95.683594 97.535156 96.578125 96.046875 C 97.46875 94.554688 98.398438 93.085938 99.363281 91.644531 C 100.328125 90.199219 101.328125 88.777344 102.363281 87.382812 C 103.398438 85.988281 104.46875 84.617188 105.570312 83.273438 C 106.671875 81.933594 107.808594 80.617188 108.972656 79.328125 C 110.140625 78.042969 111.339844 76.785156 112.566406 75.554688 C 113.796875 74.328125 115.054688 73.128906 116.339844 71.964844 C 117.628906 70.796875 118.945312 69.660156 120.285156 68.558594 C 121.628906 67.457031 123 66.390625 124.394531 65.355469 C 125.789062 64.320312 127.210938 63.320312 128.65625 62.351562 C 130.097656 61.386719 131.566406 60.457031 133.058594 59.566406 C 134.546875 58.671875 136.058594 57.816406 137.589844 56.996094 C 139.125 56.179688 140.675781 55.398438 142.246094 54.65625 C 143.816406 53.910156 145.402344 53.207031 147.007812 52.542969 C 148.613281 51.878906 150.234375 51.253906 151.871094 50.667969 C 153.507812 50.082031 155.15625 49.539062 156.820312 49.035156 C 158.480469 48.527344 160.15625 48.066406 161.839844 47.644531 C 163.527344 47.222656 165.21875 46.839844 166.925781 46.5 C 168.628906 46.164062 170.339844 45.867188 172.058594 45.609375 C 173.777344 45.355469 175.5 45.144531 177.230469 44.972656 C 178.960938 44.804688 180.691406 44.675781 182.425781 44.589844 C 184.164062 44.503906 185.898438 44.460938 187.636719 44.460938 C 189.375 44.460938 191.109375 44.503906 192.84375 44.589844 C 194.582031 44.675781 196.3125 44.804688 198.042969 44.972656 C 199.769531 45.144531 201.496094 45.355469 203.214844 45.609375 C 204.933594 45.867188 206.644531 46.164062 208.347656 46.5 C 210.050781 46.839844 211.746094 47.222656 213.433594 47.644531 C 215.117188 48.066406 216.792969 48.527344 218.453125 49.035156 C 220.117188 49.539062 221.765625 50.082031 223.402344 50.667969 C 225.039062 51.253906 226.65625 51.878906 228.261719 52.542969 C 229.867188 53.207031 231.457031 53.910156 233.027344 54.65625 C 234.597656 55.398438 236.148438 56.179688 237.679688 56.996094 C 239.214844 57.816406 240.726562 58.671875 242.214844 59.566406 C 243.707031 60.457031 245.171875 61.386719 246.617188 62.351562 C 248.0625 63.320312 249.480469 64.320312 250.878906 65.355469 C 252.273438 66.390625 253.640625 67.457031 254.984375 68.558594 C 256.328125 69.660156 257.644531 70.796875 258.929688 71.964844 C 260.21875 73.128906 261.476562 74.328125 262.703125 75.554688 C 263.933594 76.785156 265.132812 78.042969 266.296875 79.328125 C 267.464844 80.617188 268.597656 81.933594 269.703125 83.273438 C 270.804688 84.617188 271.871094 85.988281 272.90625 87.382812 C 273.941406 88.777344 274.941406 90.199219 275.90625 91.644531 C 276.875 93.085938 277.800781 94.554688 278.695312 96.046875 C 279.589844 97.535156 280.445312 99.046875 281.265625 100.578125 C 282.082031 102.113281 282.863281 103.664062 283.605469 105.234375 C 284.351562 106.804688 285.054688 108.390625 285.71875 109.996094 C 286.382812 111.601562 287.007812 113.222656 287.59375 114.859375 C 288.179688 116.496094 288.722656 118.144531 289.226562 119.804688 C 289.734375 121.46875 290.195312 123.144531 290.617188 124.828125 C 291.039062 126.511719 291.421875 128.207031 291.757812 129.910156 C 292.097656 131.617188 292.394531 133.328125 292.652344 135.046875 C 292.90625 136.765625 293.117188 138.488281 293.289062 140.21875 C 293.457031 141.945312 293.585938 143.679688 293.671875 145.414062 C 293.757812 147.148438 293.800781 148.886719 293.800781 150.625 Z M 293.800781 150.625 "/>
<path style=" stroke:none;fill-rule:nonzero;fill:rgb(100%,100%,100%);fill-opacity:1;" d="M 244.132812 134.476562 C 240.640625 134.476562 237.8125 137.3125 237.8125 140.800781 L 237.8125 172.425781 C 237.8125 175.917969 240.644531 178.75 244.132812 178.75 C 247.632812 178.75 250.457031 175.910156 250.457031 172.425781 L 250.457031 140.800781 C 250.464844 137.3125 247.632812 134.476562 244.132812 134.476562 Z M 244.132812 134.476562 "/>
<path style=" stroke:none;fill-rule:nonzero;fill:rgb(100%,100%,100%);fill-opacity:1;" d="M 225.15625 121.832031 C 221.664062 121.832031 218.839844 124.65625 218.839844 128.144531 L 218.839844 185.082031 C 218.839844 188.574219 221.671875 191.394531 225.15625 191.394531 C 228.65625 191.394531 231.484375 188.566406 231.484375 185.082031 L 231.484375 128.148438 C 231.488281 124.65625 228.65625 121.832031 225.15625 121.832031 Z M 225.15625 121.832031 "/>
<path style=" stroke:none;fill-rule:nonzero;fill:rgb(100%,100%,100%);fill-opacity:1;" d="M 130.28125 134.476562 C 126.789062 134.476562 123.960938 137.3125 123.960938 140.800781 L 123.960938 172.425781 C 123.960938 175.917969 126.792969 178.75 130.28125 178.75 C 133.777344 178.75 136.605469 175.910156 136.605469 172.425781 L 136.605469 140.800781 C 136.613281 137.3125 133.777344 134.476562 130.28125 134.476562 Z M 130.28125 134.476562 "/>
<path style=" stroke:none;fill-rule:nonzero;fill:rgb(100%,100%,100%);fill-opacity:1;" d="M 149.257812 121.832031 C 145.761719 121.832031 142.9375 124.65625 142.9375 128.144531 L 142.9375 185.082031 C 142.9375 188.574219 145.769531 191.394531 149.257812 191.394531 C 152.753906 191.394531 155.582031 188.566406 155.582031 185.082031 L 155.582031 128.148438 C 155.585938 124.65625 152.753906 121.832031 149.257812 121.832031 Z M 149.257812 121.832031 "/>
<path style=" stroke:none;fill-rule:nonzero;fill:rgb(100%,100%,100%);fill-opacity:1;" d="M 161.90625 147.128906 L 212.507812 147.128906 L 212.507812 166.101562 L 161.90625 166.101562 Z M 161.90625 147.128906 "/>
<g clip-path="url(#clip5)" clip-rule="nonzero">
<path style=" stroke:none;fill-rule:nonzero;fill:rgb(39.99939%,74.899292%,74.899292%);fill-opacity:1;" d="M 187.5625 46.273438 C 129.242188 46.273438 81.96875 93.679688 81.96875 152.15625 C 81.96875 228.757812 153.324219 252.421875 187.5625 329.023438 C 221.796875 252.421875 293.160156 228.757812 293.160156 152.15625 C 293.160156 93.679688 245.882812 46.273438 187.5625 46.273438 Z M 187.5625 46.273438 "/>
</g>
<g clip-path="url(#clip6)" clip-rule="nonzero">
<use xlink:href="#surface8" transform="matrix(1,0,0,1,81,46)" mask="url(#mask1)"/>
</g>
<path style=" stroke:none;fill-rule:nonzero;fill:rgb(1.959229%,39.99939%,45.489502%);fill-opacity:1;" d="M 278.277344 152.152344 C 278.277344 153.640625 278.238281 155.128906 278.167969 156.617188 C 278.09375 158.101562 277.984375 159.585938 277.839844 161.066406 C 277.695312 162.550781 277.511719 164.027344 277.292969 165.5 C 277.078125 166.972656 276.824219 168.4375 276.53125 169.898438 C 276.242188 171.359375 275.917969 172.808594 275.558594 174.253906 C 275.195312 175.699219 274.800781 177.132812 274.371094 178.558594 C 273.9375 179.980469 273.472656 181.394531 272.972656 182.796875 C 272.472656 184.199219 271.9375 185.585938 271.371094 186.960938 C 270.800781 188.335938 270.199219 189.695312 269.566406 191.042969 C 268.929688 192.386719 268.265625 193.71875 267.5625 195.03125 C 266.863281 196.34375 266.132812 197.636719 265.371094 198.914062 C 264.605469 200.191406 263.8125 201.449219 262.988281 202.6875 C 262.164062 203.925781 261.308594 205.140625 260.421875 206.335938 C 259.539062 207.53125 258.625 208.707031 257.683594 209.855469 C 256.742188 211.007812 255.773438 212.132812 254.777344 213.238281 C 253.777344 214.339844 252.753906 215.417969 251.707031 216.472656 C 250.65625 217.523438 249.582031 218.550781 248.480469 219.550781 C 247.378906 220.550781 246.257812 221.519531 245.109375 222.464844 C 243.960938 223.410156 242.792969 224.324219 241.597656 225.210938 C 240.40625 226.097656 239.191406 226.957031 237.957031 227.78125 C 236.722656 228.609375 235.46875 229.40625 234.195312 230.171875 C 232.921875 230.9375 231.632812 231.671875 230.324219 232.371094 C 229.011719 233.074219 227.6875 233.742188 226.34375 234.378906 C 225.003906 235.015625 223.648438 235.621094 222.273438 236.1875 C 220.902344 236.757812 219.519531 237.292969 218.121094 237.796875 C 216.722656 238.296875 215.3125 238.765625 213.894531 239.195312 C 212.472656 239.628906 211.042969 240.023438 209.601562 240.386719 C 208.160156 240.75 206.714844 241.074219 205.257812 241.363281 C 203.800781 241.65625 202.339844 241.910156 200.871094 242.128906 C 199.402344 242.347656 197.929688 242.527344 196.449219 242.675781 C 194.972656 242.820312 193.492188 242.929688 192.011719 243.003906 C 190.527344 243.078125 189.042969 243.113281 187.558594 243.113281 C 186.074219 243.113281 184.589844 243.078125 183.109375 243.003906 C 181.625 242.929688 180.144531 242.820312 178.667969 242.675781 C 177.191406 242.527344 175.714844 242.347656 174.25 242.128906 C 172.78125 241.910156 171.316406 241.65625 169.859375 241.363281 C 168.40625 241.074219 166.957031 240.75 165.515625 240.386719 C 164.078125 240.023438 162.644531 239.628906 161.226562 239.195312 C 159.804688 238.765625 158.394531 238.296875 156.996094 237.796875 C 155.601562 237.292969 154.214844 236.757812 152.84375 236.1875 C 151.472656 235.621094 150.113281 235.015625 148.773438 234.378906 C 147.429688 233.742188 146.105469 233.074219 144.796875 232.371094 C 143.484375 231.671875 142.195312 230.9375 140.921875 230.171875 C 139.648438 229.40625 138.394531 228.609375 137.160156 227.78125 C 135.925781 226.957031 134.710938 226.097656 133.519531 225.210938 C 132.328125 224.324219 131.15625 223.410156 130.007812 222.464844 C 128.859375 221.519531 127.738281 220.550781 126.636719 219.550781 C 125.539062 218.550781 124.460938 217.523438 123.414062 216.472656 C 122.363281 215.417969 121.339844 214.339844 120.34375 213.238281 C 119.34375 212.132812 118.375 211.007812 117.433594 209.855469 C 116.492188 208.707031 115.578125 207.53125 114.695312 206.335938 C 113.808594 205.140625 112.957031 203.925781 112.128906 202.6875 C 111.304688 201.449219 110.511719 200.191406 109.75 198.914062 C 108.984375 197.636719 108.253906 196.34375 107.554688 195.03125 C 106.855469 193.71875 106.1875 192.386719 105.550781 191.042969 C 104.917969 189.695312 104.316406 188.335938 103.746094 186.960938 C 103.179688 185.585938 102.644531 184.199219 102.144531 182.796875 C 101.644531 181.394531 101.179688 179.980469 100.75 178.558594 C 100.316406 177.132812 99.921875 175.699219 99.5625 174.253906 C 99.199219 172.808594 98.875 171.359375 98.585938 169.898438 C 98.296875 168.4375 98.042969 166.972656 97.824219 165.5 C 97.605469 164.027344 97.425781 162.550781 97.277344 161.066406 C 97.132812 159.585938 97.023438 158.101562 96.953125 156.617188 C 96.878906 155.128906 96.84375 153.640625 96.84375 152.152344 C 96.84375 150.664062 96.878906 149.175781 96.953125 147.6875 C 97.023438 146.203125 97.132812 144.71875 97.277344 143.238281 C 97.425781 141.753906 97.605469 140.277344 97.824219 138.804688 C 98.042969 137.332031 98.296875 135.867188 98.585938 134.40625 C 98.875 132.945312 99.199219 131.496094 99.5625 130.050781 C 99.921875 128.605469 100.316406 127.171875 100.75 125.746094 C 101.179688 124.324219 101.644531 122.910156 102.144531 121.507812 C 102.644531 120.105469 103.179688 118.71875 103.746094 117.34375 C 104.316406 115.96875 104.917969 114.605469 105.550781 113.261719 C 106.1875 111.914062 106.855469 110.585938 107.554688 109.273438 C 108.253906 107.960938 108.984375 106.664062 109.75 105.390625 C 110.511719 104.113281 111.304688 102.855469 112.128906 101.617188 C 112.957031 100.378906 113.808594 99.164062 114.695312 97.96875 C 115.578125 96.769531 116.492188 95.597656 117.433594 94.449219 C 118.375 93.296875 119.34375 92.167969 120.34375 91.066406 C 121.339844 89.964844 122.363281 88.886719 123.414062 87.832031 C 124.460938 86.78125 125.539062 85.753906 126.636719 84.753906 C 127.738281 83.753906 128.859375 82.78125 130.007812 81.839844 C 131.15625 80.894531 132.328125 79.980469 133.519531 79.09375 C 134.710938 78.207031 135.925781 77.347656 137.160156 76.519531 C 138.394531 75.695312 139.648438 74.898438 140.921875 74.132812 C 142.195312 73.367188 143.484375 72.632812 144.796875 71.933594 C 146.105469 71.230469 147.429688 70.5625 148.773438 69.925781 C 150.113281 69.289062 151.472656 68.683594 152.84375 68.117188 C 154.214844 67.546875 155.601562 67.011719 156.996094 66.507812 C 158.394531 66.007812 159.804688 65.539062 161.226562 65.109375 C 162.644531 64.675781 164.078125 64.277344 165.515625 63.917969 C 166.957031 63.554688 168.40625 63.230469 169.859375 62.9375 C 171.316406 62.648438 172.78125 62.394531 174.25 62.175781 C 175.714844 61.957031 177.191406 61.777344 178.667969 61.628906 C 180.144531 61.484375 181.625 61.375 183.109375 61.300781 C 184.589844 61.226562 186.074219 61.191406 187.558594 61.191406 C 189.042969 61.191406 190.527344 61.226562 192.011719 61.300781 C 193.492188 61.375 194.972656 61.484375 196.449219 61.628906 C 197.929688 61.777344 199.402344 61.957031 200.871094 62.175781 C 202.339844 62.394531 203.800781 62.648438 205.257812 62.9375 C 206.714844 63.230469 208.160156 63.554688 209.601562 63.917969 C 211.042969 64.277344 212.472656 64.675781 213.894531 65.109375 C 215.3125 65.539062 216.722656 66.007812 218.121094 66.507812 C 219.519531 67.011719 220.902344 67.546875 222.273438 68.117188 C 223.648438 68.683594 225.003906 69.289062 226.34375 69.925781 C 227.6875 70.5625 229.011719 71.230469 230.324219 71.933594 C 231.632812 72.632812 232.921875 73.367188 234.195312 74.132812 C 235.46875 74.898438 236.722656 75.695312 237.957031 76.519531 C 239.191406 77.347656 240.40625 78.207031 241.597656 79.09375 C 242.792969 79.980469 243.960938 80.894531 245.109375 81.839844 C 246.257812 82.78125 247.378906 83.753906 248.480469 84.753906 C 249.582031 85.753906 250.65625 86.78125 251.707031 87.832031 C 252.753906 88.886719 253.777344 89.964844 254.777344 91.066406 C 255.773438 92.167969 256.742188 93.296875 257.683594 94.449219 C 258.625 95.597656 259.539062 96.769531 260.421875 97.96875 C 261.308594 99.164062 262.164062 100.378906 262.988281 101.617188 C 263.8125 102.855469 264.605469 104.113281 265.371094 105.390625 C 266.132812 106.664062 266.863281 107.960938 267.5625 109.273438 C 268.265625 110.585938 268.929688 111.914062 269.566406 113.261719 C 270.199219 114.605469 270.800781 115.96875 271.371094 117.34375 C 271.9375 118.71875 272.472656 120.105469 272.972656 121.507812 C 273.472656 122.910156 273.9375 124.324219 274.371094 125.746094 C 274.800781 127.171875 275.195312 128.605469 275.558594 130.050781 C 275.917969 131.496094 276.242188 132.945312 276.53125 134.40625 C 276.824219 135.867188 277.078125 137.332031 277.292969 138.804688 C 277.511719 140.277344 277.695312 141.753906 277.839844 143.238281 C 277.984375 144.71875 278.09375 146.203125 278.167969 147.6875 C 278.238281 149.175781 278.277344 150.664062 278.277344 152.152344 Z M 278.277344 152.152344 "/>
<path style=" stroke:none;fill-rule:nonzero;fill:rgb(87.838745%,92.549133%,89.408875%);fill-opacity:1;" d="M 235.835938 138.316406 C 232.851562 138.316406 230.4375 140.746094 230.4375 143.734375 L 230.4375 170.832031 C 230.4375 173.824219 232.855469 176.25 235.835938 176.25 C 238.824219 176.25 241.242188 173.820312 241.242188 170.832031 L 241.242188 143.734375 C 241.246094 140.746094 238.824219 138.316406 235.835938 138.316406 Z M 235.835938 138.316406 "/>
<path style=" stroke:none;fill-rule:nonzero;fill:rgb(87.838745%,92.549133%,89.408875%);fill-opacity:1;" d="M 219.621094 127.480469 C 216.636719 127.480469 214.222656 129.90625 214.222656 132.890625 L 214.222656 181.675781 C 214.222656 184.667969 216.640625 187.085938 219.621094 187.085938 C 222.609375 187.085938 225.027344 184.664062 225.027344 181.675781 L 225.027344 132.898438 C 225.03125 129.90625 222.609375 127.480469 219.621094 127.480469 Z M 219.621094 127.480469 "/>
<path style=" stroke:none;fill-rule:nonzero;fill:rgb(87.838745%,92.549133%,89.408875%);fill-opacity:1;" d="M 138.550781 138.316406 C 135.5625 138.316406 133.148438 140.746094 133.148438 143.734375 L 133.148438 170.832031 C 133.148438 173.824219 135.570312 176.25 138.550781 176.25 C 141.539062 176.25 143.953125 173.820312 143.953125 170.832031 L 143.953125 143.734375 C 143.957031 140.746094 141.539062 138.316406 138.550781 138.316406 Z M 138.550781 138.316406 "/>
<path style=" stroke:none;fill-rule:nonzero;fill:rgb(87.838745%,92.549133%,89.408875%);fill-opacity:1;" d="M 154.761719 127.480469 C 151.777344 127.480469 149.363281 129.90625 149.363281 132.890625 L 149.363281 181.675781 C 149.363281 184.667969 151.785156 187.085938 154.761719 187.085938 C 157.753906 187.085938 160.167969 184.664062 160.167969 181.675781 L 160.167969 132.898438 C 160.171875 129.90625 157.753906 127.480469 154.761719 127.480469 Z M 154.761719 127.480469 "/>
<path style=" stroke:none;fill-rule:nonzero;fill:rgb(87.838745%,92.549133%,89.408875%);fill-opacity:1;" d="M 165.574219 149.160156 L 208.8125 149.160156 L 208.8125 165.414062 L 165.574219 165.414062 Z M 165.574219 149.160156 "/>
</g>
</svg>
